<svg width="36" height="36" viewBox="0 0 36 36" fill="none" xmlns="http://www.w3.org/2000/svg">
<g clip-path="url(#clip0_3313_58515)">
<path d="M4.21875 24.9238H5.73633V23.4199H4.23242C3.99544 23.4199 3.79948 23.3424 3.64453 23.1875C3.48958 23.0234 3.41211 22.8275 3.41211 22.5996V13.6445C3.41211 13.3984 3.48958 13.1979 3.64453 13.043C3.79948 12.8789 3.99544 12.7969 4.23242 12.7969H5.73633V11.293H4.21875C3.78125 11.293 3.38477 11.3932 3.0293 11.5938C2.68294 11.7943 2.40951 12.0723 2.20898 12.4277C2.00846 12.7741 1.9082 13.166 1.9082 13.6035V22.627C1.9082 23.0645 2.00846 23.4564 2.20898 23.8027C2.40951 24.1491 2.68294 24.4225 3.0293 24.623C3.38477 24.8236 3.78125 24.9238 4.21875 24.9238ZM8.18359 27.8359H9.14062C10.1341 27.8359 10.918 27.5534 11.4922 26.9883C12.0664 26.4141 12.3535 25.6302 12.3535 24.6367V11.6211C12.3535 10.6094 12.0755 9.81641 11.5195 9.24219C10.9635 8.66797 10.1934 8.38086 9.20898 8.38086H8.0332C7.10352 8.38086 6.37435 8.66797 5.8457 9.24219C5.32617 9.81641 5.06641 10.6094 5.06641 11.6211V24.6367C5.06641 25.6302 5.33984 26.4141 5.88672 26.9883C6.44271 27.5534 7.20833 27.8359 8.18359 27.8359ZM8.21094 26.2363C7.73698 26.2363 7.35872 26.0951 7.07617 25.8125C6.79362 25.5299 6.65234 25.138 6.65234 24.6367V11.6211C6.65234 11.1198 6.77995 10.7233 7.03516 10.4316C7.29948 10.1309 7.64583 9.98047 8.07422 9.98047H9.16797C9.66016 9.98047 10.0475 10.1309 10.3301 10.4316C10.6126 10.7233 10.7539 11.1198 10.7539 11.6211V24.6367C10.7539 25.138 10.6035 25.5299 10.3027 25.8125C10.0111 26.0951 9.61003 26.2363 9.09961 26.2363H8.21094ZM11.9707 16.8027H24.0156V15.2031H11.9707V16.8027ZM11.9707 21.0137H24.0156V19.4141H11.9707V21.0137ZM26.8457 27.8359H27.8027C28.778 27.8359 29.5436 27.5534 30.0996 26.9883C30.6556 26.4141 30.9336 25.6302 30.9336 24.6367V11.6211C30.9336 10.6094 30.6693 9.81641 30.1406 9.24219C29.612 8.66797 28.8828 8.38086 27.9531 8.38086H26.7773C25.8021 8.38086 25.0319 8.66797 24.4668 9.24219C23.9108 9.81641 23.6328 10.6094 23.6328 11.6211V24.6367C23.6328 25.6302 23.9154 26.4141 24.4805 26.9883C25.0547 27.5534 25.8431 27.8359 26.8457 27.8359ZM26.8867 26.2363C26.3763 26.2363 25.9707 26.0951 25.6699 25.8125C25.3783 25.5299 25.2324 25.138 25.2324 24.6367V11.6211C25.2324 11.1198 25.3737 10.7233 25.6562 10.4316C25.9388 10.1309 26.3262 9.98047 26.8184 9.98047H27.9258C28.3542 9.98047 28.696 10.1309 28.9512 10.4316C29.2064 10.7233 29.334 11.1198 29.334 11.6211V24.6367C29.334 25.138 29.1927 25.5299 28.9102 25.8125C28.6276 26.0951 28.2493 26.2363 27.7754 26.2363H26.8867ZM30.25 24.9238H31.7676C32.2051 24.9238 32.597 24.8236 32.9434 24.623C33.2988 24.4225 33.5768 24.1491 33.7773 23.8027C33.9779 23.4564 34.0781 23.0645 34.0781 22.627V13.6035C34.0781 13.166 33.9779 12.7741 33.7773 12.4277C33.5768 12.0723 33.2988 11.7943 32.9434 11.5938C32.597 11.3932 32.2051 11.293 31.7676 11.293H30.25V12.7969H31.7539C31.9909 12.7969 32.1868 12.8789 32.3418 13.043C32.4967 13.1979 32.5742 13.3984 32.5742 13.6445V22.5996C32.5742 22.8275 32.4967 23.0234 32.3418 23.1875C32.1868 23.3424 31.9909 23.4199 31.7539 23.4199H30.25V24.9238Z" fill="#A1A1AA"/>
</g>
<defs>
<clipPath id="clip0_3313_58515">
<rect width="36" height="36" fill="white"/>
</clipPath>
</defs>
</svg>
