<svg width="36" height="36" viewBox="0 0 36 36" fill="none" xmlns="http://www.w3.org/2000/svg">
<path d="M18.5 33.1162C20.5117 33.1162 22.4014 32.7305 24.1689 31.959C25.9463 31.1973 27.5088 30.1426 28.8564 28.7949C30.2041 27.4375 31.2637 25.875 32.0352 24.1074C32.8066 22.3301 33.1924 20.4355 33.1924 18.4238C33.1924 16.4121 32.8066 14.5225 32.0352 12.7549C31.2637 10.9775 30.2041 9.41504 28.8564 8.06738C27.5088 6.70996 25.9463 5.65039 24.1689 4.88867C22.3916 4.11719 20.4971 3.73145 18.4854 3.73145C16.4736 3.73145 14.5791 4.11719 12.8018 4.88867C11.0342 5.65039 9.47656 6.70996 8.12891 8.06738C6.78125 9.41504 5.72168 10.9775 4.9502 12.7549C4.18848 14.5225 3.80762 16.4121 3.80762 18.4238C3.80762 20.4355 4.18848 22.3301 4.9502 24.1074C5.72168 25.875 6.78125 27.4375 8.12891 28.7949C9.48633 30.1426 11.0488 31.1973 12.8164 31.959C14.5938 32.7305 16.4883 33.1162 18.5 33.1162ZM18.5 31.2266C16.7227 31.2266 15.0625 30.8945 13.5195 30.2305C11.9766 29.5664 10.6191 28.6484 9.44727 27.4766C8.27539 26.3047 7.35742 24.9473 6.69336 23.4043C6.03906 21.8516 5.71191 20.1914 5.71191 18.4238C5.71191 16.6562 6.03906 15.001 6.69336 13.458C7.35742 11.9053 8.27051 10.543 9.43262 9.37109C10.6045 8.18945 11.9619 7.27148 13.5049 6.61719C15.0576 5.95313 16.7178 5.62109 18.4854 5.62109C20.2627 5.62109 21.9229 5.95313 23.4658 6.61719C25.0088 7.27148 26.3662 8.18945 27.5381 9.37109C28.7197 10.543 29.6426 11.9053 30.3066 13.458C30.9707 15.001 31.3027 16.6562 31.3027 18.4238C31.3027 20.1914 30.9707 21.8516 30.3066 23.4043C29.6523 24.9473 28.7393 26.3047 27.5674 27.4766C26.3955 28.6484 25.0332 29.5664 23.4805 30.2305C21.9277 30.8945 20.2676 31.2266 18.5 31.2266ZM18.5 27.7109C19.7695 27.7109 20.9609 27.4668 22.0742 26.9785C23.1973 26.4902 24.1836 25.8213 25.0332 24.9717C25.8926 24.1123 26.5615 23.126 27.04 22.0127C27.5283 20.8896 27.7725 19.6934 27.7725 18.4238C27.7725 17.1641 27.5283 15.9727 27.04 14.8496C26.5615 13.7266 25.8926 12.7402 25.0332 11.8906C24.1738 11.0312 23.1826 10.3574 22.0596 9.86914C20.9463 9.38086 19.7598 9.13672 18.5 9.13672C17.2305 9.13672 16.0342 9.38086 14.9111 9.86914C13.7881 10.3574 12.7969 11.0312 11.9375 11.8906C11.0879 12.7402 10.4189 13.7266 9.93066 14.8496C9.45215 15.9727 9.21289 17.1641 9.21289 18.4238C9.21289 19.6934 9.45703 20.8896 9.94531 22.0127C10.4336 23.126 11.1025 24.1123 11.9521 24.9717C12.8115 25.8213 13.7979 26.4902 14.9111 26.9785C16.0342 27.4668 17.2305 27.7109 18.5 27.7109ZM18.5 25.9092C17.4844 25.9092 16.5225 25.7139 15.6143 25.3232C14.7158 24.9229 13.9199 24.3809 13.2266 23.6973C12.543 23.0039 12.001 22.208 11.6006 21.3096C11.21 20.4014 11.0146 19.4395 11.0146 18.4238C11.0146 17.4082 11.21 16.4463 11.6006 15.5381C11.9912 14.6299 12.5332 13.834 13.2266 13.1504C13.9199 12.457 14.7158 11.915 15.6143 11.5244C16.5127 11.1338 17.4746 10.9385 18.5 10.9385C19.5156 10.9385 20.4727 11.1338 21.3711 11.5244C22.2695 11.915 23.0605 12.457 23.7441 13.1504C24.4375 13.8437 24.9795 14.6445 25.3701 15.5527C25.7705 16.4512 25.9707 17.4082 25.9707 18.4238C25.9707 19.4492 25.7754 20.4111 25.3848 21.3096C24.9941 22.208 24.4521 23.0039 23.7588 23.6973C23.0752 24.3906 22.2793 24.9326 21.3711 25.3232C20.4727 25.7139 19.5156 25.9092 18.5 25.9092ZM18.5 22.4082C19.2324 22.4082 19.8965 22.2275 20.4922 21.8662C21.0977 21.5049 21.5811 21.0264 21.9424 20.4307C22.3037 19.8252 22.4844 19.1562 22.4844 18.4238C22.4844 17.6914 22.3037 17.0273 21.9424 16.4316C21.5811 15.8262 21.0977 15.3477 20.4922 14.9961C19.8965 14.6348 19.2324 14.4541 18.5 14.4541C17.7676 14.4541 17.0986 14.6348 16.4932 14.9961C15.8975 15.3477 15.4189 15.8262 15.0576 16.4316C14.6963 17.0273 14.5156 17.6914 14.5156 18.4238C14.5156 19.1562 14.6963 19.8252 15.0576 20.4307C15.4189 21.0264 15.9023 21.5049 16.5078 21.8662C17.1133 22.2275 17.7773 22.4082 18.5 22.4082Z" fill="#A1A1AA"/>
</svg>
