<svg width="56" height="56" viewBox="0 0 56 56" fill="none" xmlns="http://www.w3.org/2000/svg">
<mask id="mask0_3313_58503" style="mask-type:luminance" maskUnits="userSpaceOnUse" x="0" y="0" width="56" height="56">
<path fill-rule="evenodd" clip-rule="evenodd" d="M56 17.4407C56 16.7759 56.0003 16.111 55.9962 15.4462C55.9929 14.8861 55.9864 14.3262 55.9712 13.7664C55.9383 12.5463 55.8663 11.3157 55.6493 10.1092C55.4293 8.88528 55.0699 7.74619 54.5036 6.63414C53.9468 5.54113 53.2196 4.54094 52.3519 3.67383C51.4843 2.80672 50.4839 2.07994 49.3905 1.52355C48.2773 0.957094 47.137 0.597852 45.9117 0.377863C44.7051 0.161203 43.4742 0.0893686 42.2541 0.0564076C41.6939 0.0412523 41.1337 0.0348639 40.5733 0.0313979C39.9081 0.0273203 39.2429 0.0276601 38.5777 0.0276601L30.8541 0H25.0775L17.4906 0.0276601C16.8241 0.0276601 16.1576 0.0273203 15.4911 0.0313979C14.9296 0.0348639 14.3684 0.0412523 13.8071 0.0564076C12.5841 0.0893686 11.3504 0.161271 10.141 0.378202C8.91406 0.598124 7.77205 0.957229 6.65736 1.52328C5.56163 2.07974 4.55901 2.80658 3.68965 3.67383C2.82044 4.54088 2.09183 5.54085 1.53408 6.63366C0.966197 7.74625 0.606141 8.88603 0.385541 10.1106C0.168339 11.3166 0.0963682 12.5468 0.0632714 13.7664C0.0481841 14.3262 0.0416599 14.8862 0.0382619 15.4462C0.0341842 16.1111 0 16.937 0 17.6019L0.000203882 25.0837L0 30.9222L0.034524 38.563C0.034524 39.2287 0.0342522 39.8945 0.0382619 40.5602C0.0416599 41.121 0.0481841 41.6817 0.0633393 42.2423C0.0963682 43.464 0.168474 44.6963 0.385881 45.9045C0.606413 47.13 0.966401 48.2707 1.5338 49.3842C2.09163 50.4788 2.82037 51.4803 3.68965 52.3486C4.55894 53.2169 5.56129 53.9447 6.65681 54.5019C7.77218 55.0691 8.91474 55.4288 10.1424 55.649C11.3513 55.866 12.5846 55.938 13.8071 55.971C14.3684 55.9861 14.9297 55.9926 15.4912 55.996C16.1576 56.0001 16.8241 55.9998 17.4906 55.9998L25.1461 56H30.9371L38.5777 55.9997C39.2429 55.9997 39.9081 56.0001 40.5733 55.996C41.1337 55.9926 41.6939 55.9861 42.2541 55.971C43.4746 55.938 44.7059 55.8659 45.9131 55.6488C47.1376 55.4285 48.2774 55.0689 49.39 54.5021C50.4836 53.9449 51.4843 53.2171 52.3519 52.3486C53.2195 51.4804 53.9466 50.4791 54.5034 49.3847C55.07 48.2707 55.4294 47.1294 55.6496 45.903C55.8664 44.6954 55.9383 43.4635 55.9712 42.2423C55.9864 41.6817 55.9929 41.121 55.9962 40.5602C56.0003 39.8945 56 39.2287 56 38.563C56 38.563 55.9996 31.0571 55.9996 30.9222V25.0776C55.9996 24.9779 56 17.4407 56 17.4407" fill="white"/>
</mask>
<g mask="url(#mask0_3313_58503)">
<rect width="56" height="56" fill="url(#paint0_linear_3313_58503)"/>
<path fill-rule="evenodd" clip-rule="evenodd" d="M11.6194 38.2726C11.357 40.6246 11.2258 41.8006 11.9021 42.5565C12.5784 43.3125 13.7722 43.3125 16.1597 43.3125C18.224 43.3125 19.2562 43.3125 19.9133 42.6862C20.5705 42.0599 20.6197 41.0379 20.7182 38.9938C20.8794 35.6462 21.0406 32.2987 21.2017 28.951C22.5297 31.5467 23.9416 34.1424 25.4375 36.7381C25.7036 37.1999 25.8367 37.4308 26.0129 37.62C26.3183 37.948 26.7259 38.1836 27.1626 38.2844C27.4145 38.3426 27.6863 38.3426 28.2301 38.3426C28.7792 38.3426 29.0538 38.3426 29.3079 38.2834C29.7483 38.1807 30.1587 37.941 30.4644 37.6078C30.6408 37.4156 30.773 37.1812 31.0374 36.7123C32.4962 34.1252 33.8722 31.5381 35.1654 28.951C35.3517 32.3097 35.538 35.6683 35.7244 39.0269C35.837 41.0565 35.8933 42.0713 36.5493 42.6919C37.2052 43.3125 38.2296 43.3125 40.2784 43.3125C42.6797 43.3125 43.8803 43.3125 44.5572 42.5504C45.234 41.7884 45.0934 40.6056 44.8122 38.24C44.1048 32.2903 43.3975 26.3407 42.6903 20.391C42.4639 18.4866 42.3507 17.5344 41.7063 16.9621C41.0618 16.3897 40.1029 16.3897 38.1851 16.3897C37.9484 16.3897 37.7117 16.3897 37.475 16.3897C36.025 16.3897 35.2999 16.3897 34.7363 16.7559C34.1726 17.122 33.8723 17.7972 33.2717 19.1475C31.7427 22.5849 30.0747 26.0223 28.2679 29.4598C26.3765 26.0004 24.629 22.5411 23.0255 19.0817C22.4141 17.7626 22.1083 17.103 21.5499 16.7463C20.9915 16.3897 20.2782 16.3897 18.8516 16.3897C18.6076 16.3897 18.3636 16.3897 18.1197 16.3897C16.1889 16.3897 15.2236 16.3897 14.5777 16.9675C13.9318 17.5453 13.8248 18.5047 13.6107 20.4236C12.947 26.3733 12.2832 32.3229 11.6194 38.2726Z" fill="#1D1D1B"/>
<path d="M10.6754 19.4484C11.2645 20.5752 12.7932 22.3779 13.3455 23.0348C13.6379 23.0348 13.931 22.4771 14.8666 21.3158C16.0363 19.8641 18.6335 18.2882 18.4385 16.4213C13.7836 16.4213 13.236 14.7816 12.1376 13.4327C11.5086 12.6604 9.99316 11.8769 9.70076 14.4699C9.40836 17.0629 10.0111 18.1776 10.6754 19.4484Z" fill="#1D1D1B"/>
<path d="M45.3245 19.4484C44.7355 20.5752 43.2068 22.3779 42.6545 23.0348C42.362 23.0348 42.069 22.4771 41.1333 21.3158C39.9637 19.8641 37.3665 18.2882 37.5614 16.4213C42.2164 16.4213 42.764 14.7816 43.8624 13.4327C44.4913 12.6604 46.0068 11.8769 46.2992 14.4699C46.5916 17.0629 45.9889 18.1776 45.3245 19.4484Z" fill="#1D1D1B"/>
</g>
<defs>
<linearGradient id="paint0_linear_3313_58503" x1="0" y1="0" x2="56" y2="-2.45847e-07" gradientUnits="userSpaceOnUse">
<stop stop-color="#9CFFDF"/>
<stop offset="1" stop-color="#B1FEFF"/>
</linearGradient>
</defs>
</svg>
