<svg width="336" height="280" viewBox="0 0 336 280" fill="none" xmlns="http://www.w3.org/2000/svg">
<path fill-rule="evenodd" clip-rule="evenodd" d="M18.2347 233.921C15.8354 255.425 14.6358 266.177 20.8191 273.088C27.0025 280 37.9169 280 59.7459 280C78.6195 280 88.0563 280 94.0647 274.274C100.073 268.548 100.523 259.203 101.423 240.514C102.897 209.908 104.371 179.302 105.845 148.695C117.985 172.427 130.895 196.159 144.571 219.891C147.005 224.113 148.221 226.225 149.832 227.955C152.624 230.954 156.351 233.107 160.344 234.029C162.647 234.561 165.132 234.561 170.103 234.561C175.124 234.561 177.635 234.561 179.958 234.02C183.984 233.081 187.736 230.889 190.532 227.843C192.144 226.086 193.353 223.942 195.77 219.655C209.108 196.002 221.688 172.348 233.512 148.695C235.215 179.403 236.919 210.11 238.623 240.817C239.652 259.374 240.167 268.652 246.165 274.326C252.162 280 261.528 280 280.259 280C302.214 280 313.192 280 319.38 273.033C325.568 266.065 324.282 255.251 321.711 233.623C315.244 179.226 308.777 124.829 302.311 70.4321C300.241 53.0206 299.206 44.3148 293.314 39.0816C287.422 33.8484 278.655 33.8484 261.121 33.8484C258.957 33.8484 256.793 33.8484 254.629 33.8484C241.371 33.8484 234.742 33.8484 229.589 37.1964C224.435 40.5443 221.69 46.717 216.198 59.0626C202.219 90.4906 186.969 121.918 170.449 153.347C153.156 121.718 137.18 90.09 122.519 58.4615C116.929 46.4006 114.133 40.3701 109.028 37.1093C103.922 33.8484 97.4005 33.8484 84.3572 33.8484C82.1267 33.8484 79.8961 33.8484 77.6655 33.8484C60.0131 33.8484 51.1869 33.8484 45.2818 39.1314C39.3767 44.4145 38.3981 53.1863 36.441 70.7299C30.3727 125.127 24.3037 179.524 18.2347 233.921Z" fill="#1D1D1B"/>
<path d="M9.60391 61.8143C14.9895 72.1163 28.9661 88.598 34.0159 94.6038C36.6897 94.6038 39.3688 89.5051 47.9236 78.8871C58.6171 65.6146 82.3631 51.2065 80.5808 34.1373C38.0214 34.1373 33.0145 19.1457 22.9721 6.81352C17.2217 -0.248178 3.36603 -7.41082 0.692655 16.2964C-1.98072 40.0036 3.52992 50.1954 9.60391 61.8143Z" fill="#1D1D1B"/>
<path d="M326.396 61.8143C321.01 72.1163 307.033 88.598 301.984 94.6038C299.31 94.6038 296.631 89.5051 288.076 78.8871C277.382 65.6146 253.637 51.2065 255.419 34.1373C297.978 34.1373 302.985 19.1457 313.027 6.81352C318.778 -0.248178 332.634 -7.41082 335.307 16.2964C337.98 40.0036 332.47 50.1954 326.396 61.8143Z" fill="#1D1D1B"/>
</svg>
