<svg width="532" height="132" viewBox="0 0 532 132" fill="none" xmlns="http://www.w3.org/2000/svg">
<path fill-rule="evenodd" clip-rule="evenodd" d="M12.1405 107.429C11.0694 117.029 10.5339 121.829 13.2943 124.914C16.0547 128 20.9272 128 30.6723 128C39.098 128 43.3109 128 45.9932 125.444C48.6756 122.887 48.8765 118.716 49.2782 110.373C49.9362 96.709 50.5943 83.0455 51.2521 69.3818C56.6721 79.9763 62.4353 90.571 68.5407 101.166C69.6271 103.051 70.1702 103.993 70.8894 104.766C72.136 106.104 73.7997 107.066 75.582 107.477C76.6102 107.715 77.7199 107.715 79.9391 107.715C82.1806 107.715 83.3014 107.715 84.3384 107.473C86.1359 107.054 87.811 106.076 89.0588 104.716C89.7787 103.931 90.3183 102.974 91.3975 101.06C97.3518 90.5008 102.968 79.9413 108.247 69.3818C109.007 83.0906 109.768 96.799 110.528 110.508C110.988 118.792 111.218 122.934 113.895 125.467C116.572 128 120.754 128 129.116 128C138.917 128 143.818 128 146.58 124.89C149.343 121.779 148.769 116.951 147.621 107.296C144.734 83.0115 141.847 58.7273 138.96 34.4429C138.036 26.6699 137.574 22.7834 134.944 20.4471C132.314 18.1109 128.4 18.1109 120.572 18.1109C119.606 18.1109 118.64 18.1109 117.674 18.1109C111.755 18.1109 108.796 18.1109 106.495 19.6055C104.194 21.1001 102.969 23.8558 100.517 29.3672C94.2762 43.3976 87.4685 57.4277 80.0935 71.4583C72.3734 57.3383 65.2409 43.2187 58.6961 29.0989C56.2003 23.7146 54.9524 21.0224 52.6732 19.5666C50.3939 18.1109 47.4824 18.1109 41.6595 18.1109C40.6637 18.1109 39.6679 18.1109 38.6721 18.1109C30.7916 18.1109 26.8513 18.1109 24.2151 20.4694C21.5789 22.8279 21.142 26.7439 20.2683 34.5758C17.5592 58.8602 14.8499 83.1444 12.1405 107.429Z" fill="#1D1D1B"/>
<path d="M8.28747 30.5957C10.6917 35.1948 16.9313 42.5527 19.1857 45.2339C20.3793 45.2339 21.5754 42.9576 25.3945 38.2174C30.1684 32.2922 40.7693 25.8601 39.9736 18.2399C20.9739 18.2399 18.7386 11.5472 14.2554 6.04175C11.6882 2.88921 5.50269 -0.308402 4.30922 10.2752C3.11575 20.8588 5.57586 25.4086 8.28747 30.5957Z" fill="#1D1D1B"/>
<path d="M149.713 30.5957C147.308 35.1948 141.069 42.5527 138.814 45.2339C137.621 45.2339 136.425 42.9576 132.605 38.2174C127.832 32.2922 117.231 25.8601 118.026 18.2399C137.026 18.2399 139.261 11.5472 143.745 6.04175C146.312 2.88921 152.497 -0.308402 153.691 10.2752C154.884 20.8588 152.424 25.4086 149.713 30.5957Z" fill="#1D1D1B"/>
<path fill-rule="evenodd" clip-rule="evenodd" d="M257.199 64.9905H252.019C251.943 64.9905 251.868 64.9905 251.795 64.9906C250.557 64.9911 249.618 64.9914 248.787 64.849C244.668 64.1434 241.441 60.9168 240.735 56.7974C240.593 55.9659 240.593 55.0269 240.594 53.7899C240.594 53.7162 240.594 53.6414 240.594 53.5656C240.594 53.4898 240.594 53.4151 240.594 53.3414C240.593 52.1044 240.593 51.1653 240.735 50.3338C241.441 46.2145 244.668 42.9879 248.787 42.2822C249.618 42.1398 250.557 42.1402 251.794 42.1407C251.868 42.1407 251.943 42.1407 252.019 42.1407H294.634C294.709 42.1407 294.784 42.1407 294.858 42.1407C296.095 42.1402 297.034 42.1398 297.865 42.2822C301.985 42.9879 305.211 46.2145 305.917 50.3338C306.059 51.1653 306.059 52.1044 306.059 53.3415C306.059 53.4152 306.059 53.4898 306.059 53.5656C306.059 53.6414 306.059 53.7161 306.059 53.7897C306.059 55.0268 306.059 55.9659 305.917 56.7974C305.211 60.9168 301.985 64.1434 297.865 64.849C297.034 64.9914 296.095 64.9911 294.858 64.9906C294.784 64.9905 294.709 64.9905 294.634 64.9905H289.454V111.257C289.454 114.068 289.454 116.403 289.235 118.276C289.006 120.239 288.507 122.025 287.27 123.559C286.829 124.106 286.331 124.604 285.784 125.045C284.25 126.282 282.464 126.781 280.501 127.011C278.628 127.229 276.293 127.229 273.482 127.229H273.171C270.359 127.229 268.024 127.229 266.152 127.011C264.189 126.781 262.403 126.282 260.869 125.045C260.322 124.604 259.823 124.106 259.382 123.559C258.145 122.025 257.646 120.239 257.417 118.276C257.198 116.403 257.199 114.068 257.199 111.257V64.9905Z" fill="#1D1D1B"/>
<path fill-rule="evenodd" clip-rule="evenodd" d="M174.717 123.426L174.706 123.419C167.876 119.634 162.5 114.386 158.622 107.703L158.613 107.687L158.603 107.67C154.802 100.894 152.93 93.2484 152.93 84.8005C152.93 76.2799 154.8 68.5947 158.603 61.8146L158.609 61.8041L158.615 61.7937C162.493 55.0292 167.874 49.7705 174.722 46.0567C181.653 42.2623 189.522 40.3984 198.261 40.3984C206.993 40.3984 214.826 42.2601 221.683 46.0567C228.603 49.7673 233.989 55.0254 237.792 61.798C241.683 68.511 243.592 76.2052 243.592 84.8005C243.592 93.2566 241.677 100.908 237.792 107.687C233.986 114.387 228.599 119.641 221.688 123.426C214.759 127.22 206.928 129.086 198.261 129.086C189.52 129.086 181.65 127.222 174.717 123.426ZM208.217 98.007L208.227 97.995C210.918 94.7782 212.382 90.4255 212.382 84.6844C212.382 80.8944 211.703 77.6396 210.416 74.8626L210.4 74.8283L210.385 74.7936C209.157 71.9268 207.47 69.821 205.367 68.3548L205.345 68.3399L205.324 68.3245C203.228 66.7998 200.864 66.035 198.145 66.035C195.517 66.035 193.189 66.7915 191.081 68.3245L191.06 68.3399L191.039 68.3548C188.935 69.821 187.248 71.9268 186.02 74.7936L186.015 74.8041L186.011 74.8146C184.786 77.6041 184.14 80.8763 184.14 84.6844C184.14 90.4402 185.572 94.802 188.199 98.0193C190.795 101.199 194.076 102.753 198.261 102.753C202.353 102.753 205.602 101.21 208.207 98.0193L208.217 98.007Z" fill="#1D1D1B"/>
<path d="M343.327 111.371C343.328 114.129 343.328 116.42 343.117 118.259C342.896 120.186 342.415 121.943 341.221 123.462C340.736 124.08 340.178 124.637 339.561 125.122C338.041 126.316 336.285 126.797 334.357 127.018C332.518 127.229 330.227 127.229 327.469 127.229H327.164C324.405 127.229 322.114 127.229 320.275 127.018C318.348 126.797 316.591 126.316 315.072 125.122C314.454 124.637 313.897 124.08 313.411 123.462C312.217 121.943 311.737 120.186 311.516 118.259C311.305 116.419 311.305 114.128 311.305 111.37V58C311.305 55.2414 311.305 52.9505 311.516 51.1109C311.737 49.1835 312.217 47.4269 313.411 45.9075C313.897 45.2899 314.454 44.7325 315.072 44.2472C316.591 43.0533 318.348 42.5724 320.275 42.3514C322.115 42.1405 324.405 42.1406 327.164 42.1406H327.468C330.227 42.1406 332.518 42.1405 334.357 42.3514C336.285 42.5724 338.041 43.0533 339.561 44.2472C340.178 44.7325 340.736 45.2899 341.221 45.9075C342.415 47.4269 342.896 49.1835 343.117 51.1109C343.328 52.9501 343.328 55.2405 343.327 57.9983V111.371Z" fill="#1D1D1B"/>
<path fill-rule="evenodd" clip-rule="evenodd" d="M371.604 123.419L371.616 123.426C378.548 127.222 386.419 129.086 395.159 129.086C403.826 129.086 411.658 127.22 418.586 123.426C425.498 119.64 430.885 114.386 434.691 107.686C438.575 100.907 440.49 93.256 440.49 84.8005C440.49 76.2053 438.582 68.5114 434.691 61.7985C430.888 55.0258 425.501 49.7675 418.582 46.0569C411.724 42.2601 403.892 40.3984 395.159 40.3984C386.421 40.3984 378.551 42.2624 371.62 46.0568C364.773 49.7706 359.391 55.0292 355.514 61.7937L355.508 61.8041L355.502 61.8146C351.698 68.5947 349.828 76.2799 349.828 84.8005C349.828 93.2484 351.701 100.894 355.502 107.67L355.511 107.687L355.521 107.703C359.398 114.386 364.774 119.634 371.604 123.419ZM405.115 98.007L405.125 97.995C407.817 94.7782 409.28 90.4255 409.28 84.6844C409.28 80.8944 408.602 77.6396 407.315 74.8626L407.299 74.8283L407.284 74.7936C406.055 71.9268 404.369 69.821 402.265 68.3548L402.244 68.3399L402.222 68.3245C400.126 66.7998 397.762 66.035 395.043 66.035C392.416 66.035 390.087 66.7915 387.98 68.3245L387.958 68.3399L387.937 68.3548C385.833 69.821 384.147 71.9268 382.918 74.7936L382.914 74.8041L382.909 74.8146C381.684 77.6041 381.038 80.8763 381.038 84.6844C381.038 90.4402 382.471 94.802 385.097 98.0193C387.693 101.199 390.975 102.753 395.159 102.753C399.251 102.753 402.5 101.21 405.105 98.0193L405.115 98.007Z" fill="#1D1D1B"/>
<path d="M480.35 51.836L501.093 79.9235V55.1336L501.093 54.6849C501.091 52.2083 501.09 50.3203 501.655 48.7177C502.648 45.9064 504.859 43.6953 507.67 42.703C509.273 42.1374 511.161 42.1389 513.637 42.1409L514.086 42.1411L514.535 42.1409C517.011 42.1389 518.899 42.1374 520.502 42.703C523.313 43.6953 525.524 45.9064 526.516 48.7177C527.082 50.3203 527.081 52.2083 527.079 54.6849L527.078 55.1336V110.296C527.078 113.563 527.079 116.274 526.789 118.425C526.485 120.689 525.818 122.716 524.191 124.342C522.565 125.969 520.538 126.636 518.273 126.941C516.123 127.23 513.412 127.23 510.145 127.229H508.392C508.221 127.229 508.051 127.23 507.884 127.23C504.882 127.233 502.543 127.235 500.474 126.218C498.405 125.2 496.978 123.346 495.148 120.968C495.046 120.835 494.943 120.7 494.838 120.564L471.807 90.6905V114.295L471.807 114.736C471.809 117.166 471.81 119.019 471.265 120.594C470.276 123.453 468.03 125.699 465.172 126.688C463.596 127.233 461.743 127.232 459.313 127.23L458.872 127.229L458.432 127.23C456.001 127.232 454.149 127.233 452.573 126.688C449.715 125.699 447.468 123.453 446.479 120.594C445.934 119.019 445.936 117.166 445.938 114.736L445.938 114.295V57.2093C445.938 54.8208 445.938 52.8368 446.098 51.2309C446.266 49.5536 446.629 48.0085 447.54 46.612C448.287 45.467 449.264 44.49 450.409 43.7429C451.805 42.8317 453.35 42.4689 455.028 42.3014C456.634 42.141 458.618 42.141 461.006 42.1411L461.606 42.141C465.609 42.1397 468.266 42.1389 470.702 43.0116C471.854 43.4242 472.951 43.9775 473.967 44.6589C476.116 46.1002 477.694 48.2381 480.071 51.4591L480.35 51.836Z" fill="#1D1D1B"/>
</svg>
